<svg xmlns="http://www.w3.org/2000/svg" xmlns:xlink="http://www.w3.org/1999/xlink" viewBox="0 0 170.2 170.2"><defs><style>.cls-1{isolation:isolate;}.cls-2{fill:url(#linear-gradient);}.cls-3{fill:url(#linear-gradient-2);}.cls-4{fill:url(#linear-gradient-3);}.cls-5{fill:url(#linear-gradient-4);}.cls-6{fill:#fff;opacity:0.3;mix-blend-mode:overlay;}</style><linearGradient id="linear-gradient" x1="248.71" y1="167.91" x2="333.6" y2="262.92" gradientUnits="userSpaceOnUse"><stop offset="0" stop-color="#8df232"/><stop offset="1" stop-color="#1a7705"/></linearGradient><linearGradient id="linear-gradient-2" x1="340.01" y1="243.68" x2="247.44" y2="327.36" xlink:href="#linear-gradient"/><linearGradient id="linear-gradient-3" x1="260.59" y1="343.41" x2="180.94" y2="250.43" xlink:href="#linear-gradient"/><linearGradient id="linear-gradient-4" x1="172.71" y1="268.28" x2="263.67" y2="185" xlink:href="#linear-gradient"/></defs><title>pharmacy_logo</title><g class="cls-1"><g id="Layer_1" data-name="Layer 1"><path class="cls-2" d="M340.54,246.23,338.13,252a39.3,39.3,0,0,1-35.48,24.1,10.4,10.4,0,0,0,9.5-10.37V246.3a10.41,10.41,0,0,0-10.4-10.41H286.52a10.41,10.41,0,0,1-10.41-10.41V225c0-.51,0-1,0-1.51V210.15A39.32,39.32,0,0,0,252,173.89l-5.8-2.43a85.13,85.13,0,0,1,94.31,74.77Z" transform="translate(-170.9 -170.9)"/><path class="cls-3" d="M341.1,256a85.11,85.11,0,0,1-75.39,84.55L260,338.13a39.33,39.33,0,0,1-24.11-36.26V288.51c0-.6,0-1.2,0-1.8v15a10.41,10.41,0,0,0,10.41,10.4h19.4a10.41,10.41,0,0,0,10.41-10.4V286.52a10.41,10.41,0,0,1,10.41-10.41h15.23a8.83,8.83,0,0,0,.89,0h0A39.3,39.3,0,0,0,338.13,252l2.41-5.74A85.3,85.3,0,0,1,341.1,256Z" transform="translate(-170.9 -170.9)"/><path class="cls-4" d="M265.71,340.55a86.56,86.56,0,0,1-9.71.55,85.12,85.12,0,0,1-84.56-75.46l2.37-5.64a39.33,39.33,0,0,1,36.27-24.11h.17a10.41,10.41,0,0,0-10.4,10.41v19.4a10.41,10.41,0,0,0,10.4,10.41h15.23a10.41,10.41,0,0,1,10.41,10.41v.19c0,.6,0,1.2,0,1.8v13.36A39.33,39.33,0,0,0,260,338.13Z" transform="translate(-170.9 -170.9)"/><path class="cls-5" d="M276.14,210.15v13.36c0,.5,0,1,0,1.51V210.25a10.41,10.41,0,0,0-10.41-10.4H246.3a10.41,10.41,0,0,0-10.41,10.4v15.23a10.41,10.41,0,0,1-10.41,10.41h-15.4A39.33,39.33,0,0,0,173.81,260l-2.37,5.64a87.58,87.58,0,0,1-.54-9.64,85.1,85.1,0,0,1,75.33-84.54l5.8,2.43A39.32,39.32,0,0,1,276.14,210.15Z" transform="translate(-170.9 -170.9)"/><path class="cls-6" d="M276.14,210.15A39.32,39.32,0,0,0,252,173.89l-5.8-2.43C281.94,178.61,276.14,210.15,276.14,210.15Z" transform="translate(-170.9 -170.9)"/><path class="cls-6" d="M210.14,235.89a39.2,39.2,0,0,0-36.27,23.95l-2.43,5.8C178.59,229.93,210.14,235.89,210.14,235.89Z" transform="translate(-170.9 -170.9)"/><path class="cls-6" d="M235.84,301.87a39.27,39.27,0,0,0,24.07,36.25l5.8,2.43C230,333.4,235.84,301.87,235.84,301.87Z" transform="translate(-170.9 -170.9)"/><path class="cls-6" d="M301.86,276.1A39.27,39.27,0,0,0,338.11,252l2.43-5.8C333.39,281.94,301.86,276.1,301.86,276.1Z" transform="translate(-170.9 -170.9)"/></g></g></svg>