<svg id="Layer_1" data-name="Layer 1" xmlns="http://www.w3.org/2000/svg" xmlns:xlink="http://www.w3.org/1999/xlink" viewBox="0 0 123.58 160.18"><defs><style>.cls-1{fill:url(#linear-gradient);}.cls-2{mask:url(#mask);}.cls-3{fill:#f2f2f2;}</style><linearGradient id="linear-gradient" x1="257.25" y1="328.76" x2="257.25" y2="262.41" gradientUnits="userSpaceOnUse"><stop offset="0"/><stop offset="0.09" stop-color="#070707"/><stop offset="0.22" stop-color="#1a1a1a"/><stop offset="0.37" stop-color="#3a3a3a"/><stop offset="0.54" stop-color="#676767"/><stop offset="0.73" stop-color="#a0a0a0"/><stop offset="0.93" stop-color="#e4e4e4"/><stop offset="1" stop-color="#fff"/></linearGradient><mask id="mask" x="-4.79" y="115.19" width="135.65" height="51.21" maskUnits="userSpaceOnUse"><g transform="translate(-194.21 -175.91)"><rect class="cls-1" x="189.42" y="291.1" width="135.65" height="51.21"/></g></mask></defs><title>Untitled-1</title><g class="cls-2"><path class="cls-3" d="M292.36,313l.24,23.07h-9a142.06,142.06,0,0,1-1.09-17.82c-2.37.14-1.41,11,.75,17.82H273.21c-.82-9.88-.75-17.82-.75-17.82h-2.07s-.07,4.15,0,10.39a71.45,71.45,0,0,0,.5,7.43H257.43c.71-9.88.93-17.82.93-17.82H256c.11,5.31-.15,11.53-.58,17.82H244.16a137.06,137.06,0,0,0,.06-17.82h-2.07s-.18,4.16,0,10.39c0,2.3-.08,4.84-.28,7.43h-14c1.65-7.8,2.15-17.68,0-17.82-.09,8.41-.45,14.18-.78,17.82H215.4l.14-23.07Zm.09-19.88h-77v17.65h77Z" transform="translate(-194.21 -175.91)"/></g><path class="cls-3" d="M215.46,275.49h77v17.65h-77Zm102-59.13c-2.88,19.88-24.71,20.26-24.71,20.26l-.38,36.65H215.54l-.23-36.19s-18.06-3.28-20.45-14.49c-1.66-7.81-.71-19.36,9.75-27,17.26-12.59,32.52,2.05,32.52,2.05s.08-5.78-11-9.48c5.13-10,31.6-19.3,46.22-4.72,12.06,12,12.51,22.45,10.3,29.07,5.53-6.23,4.94-17.87-2.38-25.83C300.93,181.24,320.63,194.45,317.45,216.36Zm-90.92,28.81s1.21,6.4,1.38,22.84C230.51,267.84,229.12,252.78,226.53,245.17Zm12.16-17.65s3.63,18.17,3.46,30.11c-.18,6.23,0,10.38,0,10.38h2.07S246.3,240.33,238.69,227.52ZM258.36,268s-1.21-42.39-6.74-53.29c0,0,4.78,33.22,4.38,53.29Zm19.08-42.39s-6.85,14.88-7.05,32c-.07,6.23,0,10.38,0,10.38h2.07S272.21,242.16,277.44,225.62Zm6.5,22.75c-2.6,6.55-4,19.49-1.39,19.64C282.73,253.88,283.94,248.37,283.94,248.37Z" transform="translate(-194.21 -175.91)"/></svg>